<?xml version="1.0" standalone="no"?>
<!DOCTYPE svg PUBLIC "-//W3C//DTD SVG 20010904//EN"
 "http://www.w3.org/TR/2001/REC-SVG-20010904/DTD/svg10.dtd">
<svg version="1.0" xmlns="http://www.w3.org/2000/svg"
 width="128.000000pt" height="128.000000pt" viewBox="0 0 128.000000 128.000000"
 preserveAspectRatio="xMidYMid meet">

<g transform="translate(0.000000,128.000000) scale(0.100000,-0.100000)"
fill="#000000" stroke="none">
<path d="M63 1055 c-61 -26 -63 -37 -63 -415 0 -380 1 -389 65 -416 51 -21
1099 -21 1150 0 64 27 65 36 65 416 0 380 -1 389 -65 416 -50 21 -1104 20
-1152 -1z m1151 -67 c24 -34 24 -662 0 -696 l-15 -22 -559 0 -559 0 -15 22
c-24 34 -24 662 0 696 l15 22 559 0 559 0 15 -22z"/>
<path d="M163 834 c-3 -8 -2 -19 3 -23 5 -5 114 -76 241 -159 l233 -151 237
154 c231 150 269 184 221 193 -9 2 -114 -60 -234 -137 -119 -78 -220 -141
-224 -141 -4 0 -104 63 -223 140 -119 77 -224 140 -232 140 -9 0 -18 -7 -22
-16z"/>
<path d="M268 505 c-69 -46 -129 -89 -133 -95 -4 -7 0 -19 9 -28 14 -15 26 -9
138 68 155 104 155 105 138 124 -7 9 -15 16 -19 16 -3 0 -63 -38 -133 -85z"/>
<path d="M860 575 c-17 -20 -17 -20 138 -125 112 -77 124 -83 138 -68 9 9 13
21 9 27 -7 12 -236 168 -259 177 -7 3 -19 -2 -26 -11z"/>
</g>
</svg>
